<svg id="visual" viewBox="0 0 1500 800" width="1500" height="800" xmlns="http://www.w3.org/2000/svg" xmlns:xlink="http://www.w3.org/1999/xlink" version="1.1"><rect x="0" y="0" width="1500" height="800" fill="#F8F4EA"></rect><path d="M0 498L27.8 488.2C55.7 478.3 111.3 458.7 166.8 445.3C222.3 432 277.7 425 333.2 444.2C388.7 463.3 444.3 508.7 500 508.3C555.7 508 611.3 462 666.8 443.8C722.3 425.7 777.7 435.3 833.2 481.2C888.7 527 944.3 609 1000 633.7C1055.7 658.3 1111.3 625.7 1166.8 586.3C1222.3 547 1277.7 501 1333.2 514.8C1388.7 528.7 1444.3 602.3 1472.2 639.2L1500 676L1500 801L1472.2 801C1444.3 801 1388.7 801 1333.2 801C1277.7 801 1222.3 801 1166.8 801C1111.3 801 1055.7 801 1000 801C944.3 801 888.7 801 833.2 801C777.7 801 722.3 801 666.8 801C611.3 801 555.7 801 500 801C444.3 801 388.7 801 333.2 801C277.7 801 222.3 801 166.8 801C111.3 801 55.7 801 27.8 801L0 801Z" fill="#579BB1" stroke-linecap="round" stroke-linejoin="miter"></path></svg>