<svg id="visual" viewBox="0 0 1500 800" width="1500" height="800" xmlns="http://www.w3.org/2000/svg" xmlns:xlink="http://www.w3.org/1999/xlink" version="1.1"><rect x="0" y="0" width="1500" height="800" fill="#F8F4EA"></rect><path d="M0 409L17.8 411.2C35.7 413.3 71.3 417.7 107 420.5C142.7 423.3 178.3 424.7 214 419.2C249.7 413.7 285.3 401.3 321.2 409.7C357 418 393 447 428.8 458.2C464.7 469.3 500.3 462.7 536 458.2C571.7 453.7 607.3 451.3 643 444.8C678.7 438.3 714.3 427.7 750 409.7C785.7 391.7 821.3 366.3 857 376.3C892.7 386.3 928.3 431.7 964 452.3C999.7 473 1035.3 469 1071.2 448.7C1107 428.3 1143 391.7 1178.8 376.3C1214.7 361 1250.3 367 1286 361.2C1321.7 355.3 1357.3 337.7 1393 336.2C1428.7 334.7 1464.3 349.3 1482.2 356.7L1500 364L1500 801L1482.2 801C1464.3 801 1428.7 801 1393 801C1357.3 801 1321.7 801 1286 801C1250.3 801 1214.7 801 1178.8 801C1143 801 1107 801 1071.2 801C1035.3 801 999.7 801 964 801C928.3 801 892.7 801 857 801C821.3 801 785.7 801 750 801C714.3 801 678.7 801 643 801C607.3 801 571.7 801 536 801C500.3 801 464.7 801 428.8 801C393 801 357 801 321.2 801C285.3 801 249.7 801 214 801C178.3 801 142.7 801 107 801C71.3 801 35.7 801 17.8 801L0 801Z" fill="#579BB1" stroke-linecap="round" stroke-linejoin="miter"></path></svg>